PathFileType	4	(X/Y/Z)	Patient4_TMGait_0pt2_03_left_27.trc.trc
DataRate	CameraRate	NumFrames	NumMarkers	Units	OrigDataRate	OrigDataStartFrame	OrigNumFrames
46.511627906977	46.511627906977	4	33	mm	46.511627906977	1	       141
Frame#	Time	Sacral			L.Shoulder			Chest			R.Shoulder			Neck			R.ASIS			L.ASIS			R.Thigh.Superior			R.Thigh.Lateral			R.Thigh.Inferior			R.Patella			L.Thigh.Superior			L.Thigh.Lateral			L.Thigh.Inferior			L.Patella			L.Shank.Superior			L.Shank.Lateral			L.Shank.Inferior			R.Shank.Superior			R.Shank.Lateral			R.Shank.Inferior			R.Heel			R.Midfoot.Superior			R.Midfoot.Lateral			R.Toe			L.Heel			L.Midfoot.Lateral			L.Midfoot.Superior			L.Toe			L.Elbow			L.Wrist			R.Elbow			R.Wrist			
		X1	Y1	Z1	X2	Y2	Z2	X3	Y3	Z3	X4	Y4	Z4	X5	Y5	Z5	X6	Y6	Z6	X7	Y7	Z7	X8	Y8	Z8	X9	Y9	Z9	X10	Y10	Z10	X11	Y11	Z11	X12	Y12	Z12	X13	Y13	Z13	X14	Y14	Z14	X15	Y15	Z15	X16	Y16	Z16	X17	Y17	Z17	X18	Y18	Z18	X19	Y19	Z19	X20	Y20	Z20	X21	Y21	Z21	X22	Y22	Z22	X23	Y23	Z23	X24	Y24	Z24	X25	Y25	Z25	X26	Y26	Z26	X27	Y27	Z27	X28	Y28	Z28	X29	Y29	Z29	X30	Y30	Z30	X31	Y31	Z31	X32	Y32	Z32	X33	Y33	Z33	

1	56.370000000000	934.889086166376	993.060350032365	562.311461316620	1143.604899902853	1407.725066801348	371.129129995893	1236.949089247603	1336.961906259490	536.244313067136	1155.993528802915	1422.168467338647	705.273698396265	1124.698724812366	1475.995129439501	525.902701659085	1167.995275700215	922.469886099378	673.109481990300	1143.246558754773	945.642471661560	400.187884686781	1224.549579572747	731.355356400055	622.992154857094	1159.278191189933	610.836938172194	679.108624850030	1235.299270539156	569.697728974387	590.109104117897	1243.772796248173	473.050302636952	592.116795756590	1218.583274745758	758.074833151562	409.064904293902	1152.783783344983	627.558669832376	325.602149991850	1263.592181585072	566.220982080234	380.260288291661	1269.358519874492	477.671574025990	366.719573517123	1198.580204486326	416.074938035061	355.308066108720	1056.721253284906	385.080137597157	299.013305715342	1034.426186454387	253.156437253699	345.038113627499	1196.755339297828	385.579927384022	598.936283884008	1113.185129866844	294.081336298559	665.027292109200	1129.076289692296	196.038062748675	597.521068499578	966.889322341011	46.033334597260	580.919977431531	1140.375722820082	96.157489361016	605.364143303796	1054.335499867795	38.223210547818	649.454216142874	1261.584221287112	41.520108176310	628.605957005190	838.938246530649	202.728466880046	374.080797279452	893.242715576074	152.600103311525	293.883767948371	999.114792727840	151.348636485380	315.868798840589	1067.489924176018	33.617468135024	286.809587048181	1106.155892282073	1052.285877976958	258.915525530190	1167.046871336474	798.368522885324	251.709347112884	1094.433153882795	1082.426457158319	846.438718603898	1210.440218918060	845.462395246621	845.808581366703	
2	56.391500000000	933.697790509001	988.763466661487	567.889041462777	1135.875541832834	1404.774194373388	373.329981608975	1233.563233724820	1334.198999562641	535.836919600259	1156.616582505253	1418.310172261832	707.149693147582	1121.351056662320	1472.996084340236	528.637913705770	1169.169416021856	919.584223677067	674.268169933412	1139.877984576572	943.184393530307	402.077941068587	1226.370967657369	728.827817577518	622.928142656938	1162.621183691542	607.837557888557	679.082999298905	1237.370156677593	567.477465581976	588.700523486852	1245.889497428586	470.266674510825	590.064932754962	1220.170370053756	760.370343571770	412.779810156320	1159.816647879641	628.300875815797	328.497593354235	1272.468416083718	570.740769618711	384.871347142349	1281.239670248440	481.990289652027	370.701184726787	1211.096681747179	418.851952778419	358.482269330203	1068.839665149370	386.749392970752	303.394750902000	1048.618466666571	254.103321060719	348.230184243275	1197.718076999473	382.862401122774	597.510853116642	1113.402269351486	292.446131763454	664.535440068903	1126.867175762627	194.445807685944	596.888243703991	962.640510619176	45.889736443733	581.140997521596	1136.032044268288	95.976036974778	605.213972958174	1050.025974805061	38.115432919001	649.670971261206	1257.328313423666	41.408478448671	628.609339505446	854.004844004345	199.497803250616	378.324276832749	908.623476828303	152.674806789589	296.713148875956	1014.492713359397	153.221261335133	318.190338507035	1085.042932701690	37.954585960568	285.788036290734	1083.528949125191	1051.295277169505	264.502447523069	1127.313481634572	795.846413524070	260.493380986210	1115.951843156729	1077.501465745523	849.106847728547	1248.186521221184	851.765494284651	846.172022232602	
3	56.413000000000	932.593744959191	984.926405420734	573.584259249214	1127.903465490567	1402.341484746929	375.609936110050	1230.090793850500	1331.902276361544	535.318468293981	1157.419092405352	1414.926637423809	708.978377629202	1117.896648007398	1470.421435554867	531.415425802707	1170.406708466370	917.079462285946	675.281534896150	1136.333286618918	941.135473237631	403.875821018161	1227.886260992477	726.486191828808	622.819712126117	1165.511392661480	605.121211074542	679.133084767430	1238.906722403899	565.406448193659	587.378599430192	1247.376009650973	467.683692836250	588.176486445229	1221.417921988891	762.965150887862	416.258653841282	1166.252417104253	629.319032779640	331.313259467503	1280.695253153833	575.473745865373	389.163562736563	1292.466452602060	486.663827354211	374.394750463882	1223.323645657944	421.886760804792	361.439548234451	1080.978783006664	387.748840727003	307.667742935376	1063.812656757570	254.372742307250	351.252490959964	1198.113476613881	380.374856532444	596.226685479140	1113.161077819486	290.940772103680	664.188706175400	1124.326185553505	193.003424679368	596.358178703010	958.215874970241	45.770662854099	581.379266155950	1131.530588439920	95.810429052350	605.108956170138	1045.554245064290	38.008278849337	649.895777497097	1252.904295224400	41.297101409019	628.613626576885	870.788895176355	194.381086752300	382.592784308388	925.762321934680	151.208163162003	299.514551952330	1031.511172654889	154.237621038912	320.354256862811	1104.783642238753	42.039736464693	284.556883069084	1060.369099941246	1051.164115485268	270.340158054233	1087.046586333567	794.426410096051	269.882957741065	1138.262388083567	1073.426692877235	851.468065188162	1287.146088796465	860.067102141347	845.816694653907	
4	56.434500000000	931.642163060654	981.883115938469	579.210285636705	1119.892078181930	1400.728738171125	377.915376570574	1226.626070408247	1330.342487563248	534.656923925787	1158.445850690034	1412.331598181861	710.658612276329	1114.427763427942	1468.538092629010	534.141274896599	1171.663821257473	915.191784204124	676.041315440236	1132.678021510251	939.741933689259	405.468877901522	1228.891933053942	724.494060369493	622.655332409689	1167.624839287326	602.911742110480	679.295287102908	1239.599381779117	563.623731034663	586.240936876192	1247.880304433071	465.488152817545	586.601847144356	1222.112870722354	765.851536400240	419.270561441290	1171.570171339890	630.663175718155	333.900212355078	1287.654365138968	580.288709137851	392.847596133458	1302.306481977819	491.636347352958	377.553599765117	1234.650777598614	425.165761527257	363.985369769482	1092.726049404427	387.788894717927	311.573122341851	1079.851864242974	253.749855334173	353.892915093865	1197.664061998849	378.309079948732	595.199386455292	1112.255077503293	289.673786342824	664.058811573398	1121.394100078134	191.826735703301	595.992968842941	953.697029739343	45.687358740604	581.630957371034	1126.963049310569	95.672727768705	605.070390281473	1041.008348390775	37.906181912939	650.122909442124	1248.396576951132	41.191409119603	628.618232062794	889.386878069552	186.962058724985	386.651355465601	944.779015922992	147.741938836508	302.116716428194	1050.232132840112	154.079030262624	322.187006498845	1126.860376613831	45.640861008635	283.110734413152	1037.322592442664	1052.262870007723	276.328963334910	1047.569964323034	794.622963866105	279.808988316744	1160.882968775812	1070.754214554392	853.279470425478	1326.304524158971	870.995148175451	844.400167506172	
